<svg width="88" height="88" viewBox="0 0 88 88" fill="none" xmlns="http://www.w3.org/2000/svg">
<path d="M44.0002 80.6667C64.2512 80.6667 80.6668 64.251 80.6668 44C80.6668 23.749 64.2512 7.33337 44.0002 7.33337C23.7492 7.33337 7.3335 23.749 7.3335 44C7.3335 64.251 23.7492 80.6667 44.0002 80.6667Z" stroke="#FDFBF8" stroke-width="2"/>
<path d="M7.3335 38.2067C12.8616 35.5972 16.9499 35.2336 19.5985 37.1158C23.5713 39.9392 24.0682 51.4507 33.1065 45.9507C42.1448 40.4507 29.2363 38.2067 32.0377 30.239C34.839 22.2695 44.0148 28.4607 44.926 19.7322C45.5359 13.9132 38.5753 11.6863 24.0443 13.0515" stroke="#FDFBF8" stroke-width="2"/>
<path d="M66.0002 14.6667C55.5246 23.8126 51.8659 29.3352 55.0241 31.2346C59.7614 34.0854 61.7707 30.0722 67.5531 31.2346C73.3354 32.3969 72.0814 40.2344 69.0417 40.2344C66.0021 40.2344 50.2519 38.2287 51.0458 47.4192C51.8396 56.6097 61.3124 57.9701 61.3124 63.1053C61.3124 66.5275 59.2163 71.7665 55.0241 78.8224M11.1909 60.3644C12.4406 59.8146 13.6972 59.2804 14.9603 58.7621C22.0125 55.9143 27.246 55.2427 30.6609 56.7472C36.6963 59.4111 34.3752 64.7901 36.2672 66.7719C38.1556 68.7538 42.8783 68.1781 42.8783 71.9474C42.8783 74.4615 42.0337 77.3007 40.3446 80.4651" stroke="#FDFBF8" stroke-width="2" stroke-linecap="round"/>
</svg>
