<svg width="41" height="41" viewBox="0 0 41 41" fill="none" xmlns="http://www.w3.org/2000/svg">
<path d="M35.1063 2.56251H5.63756C5.2089 2.5615 4.78425 2.64518 4.38802 2.80875C3.99179 2.97233 3.63179 3.21257 3.32867 3.51568C3.02556 3.8188 2.78532 4.17881 2.62174 4.57504C2.45817 4.97127 2.37448 5.39591 2.3755 5.82457V35.2933C2.37448 35.722 2.45817 36.1466 2.62174 36.5429C2.78532 36.9391 3.02556 37.2991 3.32867 37.6022C3.63179 37.9053 3.99179 38.1456 4.38802 38.3091C4.78425 38.4727 5.2089 38.5564 5.63756 38.5554H21.9351V23.8723H17.0407V18.9779H21.9351V16.3385C21.9351 11.3673 24.3592 9.18913 28.4951 9.18913C30.4733 9.18913 31.5188 9.3352 32.0057 9.40182V14.0938H29.1869C27.4316 14.0938 26.8192 15.0188 26.8192 16.8869V18.9779H31.9698L31.2728 23.8723H26.8397V38.5554H34.9884C35.4171 38.5564 35.8417 38.4727 36.238 38.3091C36.6342 38.1456 36.9942 37.9053 37.2973 37.6022C37.6004 37.2991 37.8407 36.9391 38.0043 36.5429C38.1678 36.1466 38.2515 35.722 38.2505 35.2933V5.82457C38.2515 5.39591 38.1678 4.97127 38.0043 4.57504C37.8407 4.17881 37.6004 3.8188 37.2973 3.51568C36.9942 3.21257 36.6342 2.97233 36.238 2.80875C35.8417 2.64518 35.4171 2.5615 34.9884 2.56251H35.1063Z" fill="#394DF7"/>
</svg>
