<svg width="69" height="59" viewBox="0 0 69 59" fill="none" xmlns="http://www.w3.org/2000/svg">
<path d="M49.9922 0C43.2084 0 37.3613 3.22418 34.1719 8.56512C30.9825 3.22418 25.1353 0 18.3516 0C13.4862 0.00586135 8.82184 1.94121 5.38152 5.38152C1.94121 8.82184 0.00586135 13.4862 0 18.3516C0 27.3976 5.69531 36.8518 16.8961 46.4453C22.068 50.8459 27.652 54.7377 33.5707 58.0669C33.7554 58.1666 33.962 58.2188 34.1719 58.2188C34.3818 58.2188 34.5883 58.1666 34.773 58.0669C40.6917 54.7377 46.2758 50.8459 51.4477 46.4453C62.6484 36.8518 68.3438 27.3976 68.3438 18.3516C68.3379 13.4862 66.4025 8.82184 62.9622 5.38152C59.5219 1.94121 54.8575 0.00586135 49.9922 0ZM34.1719 55.504C29.7422 52.9727 2.53125 36.7253 2.53125 18.3516C2.53627 14.1573 4.20467 10.1363 7.17046 7.17046C10.1363 4.20467 14.1573 2.53627 18.3516 2.53125C25.0309 2.53125 30.6439 6.10981 33.0012 11.8684C33.0965 12.1005 33.2587 12.2991 33.4672 12.4388C33.6756 12.5785 33.9209 12.6531 34.1719 12.6531C34.4228 12.6531 34.6681 12.5785 34.8766 12.4388C35.085 12.2991 35.2472 12.1005 35.3426 11.8684C37.6998 6.10981 43.3129 2.53125 49.9922 2.53125C54.1865 2.53627 58.2075 4.20467 61.1733 7.17046C64.1391 10.1363 65.8075 14.1573 65.8125 18.3516C65.8125 36.7031 38.6016 52.9854 34.1719 55.504Z" fill="#FDFBF8"/>
</svg>
