<svg width="41" height="41" viewBox="0 0 41 41" fill="none" xmlns="http://www.w3.org/2000/svg">
<path fill-rule="evenodd" clip-rule="evenodd" d="M9.92776 2.30469C7.90572 2.30469 5.96646 3.10774 4.5364 4.53726C3.10633 5.96677 2.30253 7.90573 2.30176 9.92776V30.2638C2.30176 32.2863 3.10521 34.226 4.53536 35.6562C5.96551 37.0863 7.90522 37.8898 9.92776 37.8898H30.2638C32.2858 37.889 34.2247 37.0852 35.6543 35.6551C37.0838 34.2251 37.8868 32.2858 37.8868 30.2638V9.92776C37.8861 7.90623 37.0827 5.96773 35.6532 4.53829C34.2238 3.10886 32.2853 2.30546 30.2638 2.30469H9.92776ZM32.4573 9.93947C32.4573 10.522 32.2258 11.0807 31.8139 11.4926C31.402 11.9045 30.8434 12.1359 30.2608 12.1359C29.6783 12.1359 29.1196 11.9045 28.7077 11.4926C28.2958 11.0807 28.0644 10.522 28.0644 9.93947C28.0644 9.35694 28.2958 8.79827 28.7077 8.38636C29.1196 7.97445 29.6783 7.74304 30.2608 7.74304C30.8434 7.74304 31.402 7.97445 31.8139 8.38636C32.2258 8.79827 32.4573 9.35694 32.4573 9.93947ZM20.0987 14.0043C18.4831 14.0043 16.9338 14.6461 15.7914 15.7885C14.649 16.9308 14.0073 18.4802 14.0073 20.0958C14.0073 21.7113 14.649 23.2607 15.7914 24.403C16.9338 25.5454 18.4831 26.1872 20.0987 26.1872C21.7142 26.1872 23.2636 25.5454 24.406 24.403C25.5483 23.2607 26.1901 21.7113 26.1901 20.0958C26.1901 18.4802 25.5483 16.9308 24.406 15.7885C23.2636 14.6461 21.7142 14.0043 20.0987 14.0043ZM11.0758 20.0958C11.0758 17.7035 12.0261 15.4092 13.7177 13.7177C15.4092 12.0261 17.7035 11.0758 20.0958 11.0758C22.488 11.0758 24.7823 12.0261 26.4739 13.7177C28.1654 15.4092 29.1158 17.7035 29.1158 20.0958C29.1158 22.488 28.1654 24.7823 26.4739 26.4739C24.7823 28.1654 22.488 29.1158 20.0958 29.1158C17.7035 29.1158 15.4092 28.1654 13.7177 26.4739C12.0261 24.7823 11.0758 22.488 11.0758 20.0958Z" fill="#394DF7"/>
</svg>
