<svg width="83" height="66" viewBox="0 0 83 66" fill="none" xmlns="http://www.w3.org/2000/svg">
<path d="M82.3379 1.4666C82.3167 1.11938 82.169 0.79196 81.9227 0.54631C81.6764 0.300659 81.3486 0.153824 81.0013 0.133596C63.139 -0.932811 48.8527 4.43477 42.7813 14.4554C38.6437 21.2875 38.8107 29.3567 43.2221 37.2801C40.109 40.6999 38.0533 44.9484 37.3036 49.5118L28.9536 41.1618C32.0213 35.4743 32.0853 29.6695 29.1029 24.7427C24.688 17.452 14.3438 13.5561 1.42254 14.3132C1.0771 14.3351 0.751475 14.4821 0.506723 14.7269C0.261971 14.9716 0.114902 15.2973 0.0930913 15.6427C-0.664057 28.5569 3.23188 38.901 10.5225 43.3159C12.8623 44.7528 15.5545 45.5132 18.3002 45.5127C21.3309 45.4611 24.3009 44.6547 26.9416 43.1666L36.9694 53.2051V63.9865C36.9694 64.3636 37.1192 64.7252 37.3859 64.9919C37.6525 65.2585 38.0142 65.4083 38.3913 65.4083C38.7684 65.4083 39.1301 65.2585 39.3967 64.9919C39.6634 64.7252 39.8132 64.3636 39.8132 63.9865V53.5037C39.7998 48.2542 41.7368 43.187 45.2483 39.2849C49.3326 41.5457 53.4489 42.6832 57.4195 42.6832C61.1599 42.6839 64.8275 41.6492 68.0161 39.6937C78.0332 33.6188 83.3901 19.3325 82.3379 1.4666ZM11.9942 40.881C5.85524 37.1699 2.48895 28.3294 2.87286 17.093C14.1092 16.7056 22.9497 20.0754 26.6893 26.2143C28.9927 30.0214 29.0318 34.5216 26.8528 39.0432L16.6437 28.8555C16.3732 28.6104 16.0189 28.4787 15.654 28.4877C15.2891 28.4967 14.9417 28.6456 14.6836 28.9037C14.4255 29.1618 14.2765 29.5093 14.2676 29.8742C14.2586 30.239 14.3902 30.5934 14.6353 30.8639L24.8266 41.0552C20.3015 43.2342 15.8013 43.1951 11.9942 40.881ZM66.5409 37.2552C60.8356 40.7104 54.0675 40.6641 47.3171 37.1663L67.8348 16.6451C68.0904 16.3765 68.231 16.0187 68.2266 15.6479C68.2222 15.2771 68.0731 14.9228 67.8111 14.6603C67.5492 14.3979 67.195 14.2482 66.8243 14.2431C66.4535 14.238 66.0954 14.378 65.8264 14.6332L45.3052 35.1544C41.8073 28.4005 41.7505 21.6466 45.2163 15.9306C50.5874 7.04391 63.3736 2.23442 79.5652 2.90625C80.2406 19.0979 75.4134 31.8841 66.5409 37.2552Z" fill="#FDFBF8"/>
</svg>
