<svg width="44" height="44" viewBox="0 0 44 44" fill="none" xmlns="http://www.w3.org/2000/svg">
<path d="M30.4334 10.67C29.1804 9.23913 28.4899 7.4019 28.49 5.5H22.825V28.2333C22.7823 29.4639 22.2632 30.6296 21.3773 31.4847C20.4914 32.3399 19.308 32.8174 18.0767 32.8167C15.4734 32.8167 13.31 30.69 13.31 28.05C13.31 24.8967 16.3534 22.5317 19.4884 23.5033V17.71C13.1634 16.8667 7.62671 21.78 7.62671 28.05C7.62671 34.155 12.6867 38.5 18.0584 38.5C23.815 38.5 28.49 33.825 28.49 28.05V16.5183C30.7872 18.1681 33.5452 19.0532 36.3734 19.0483V13.3833C36.3734 13.3833 32.9267 13.5483 30.4334 10.67Z" fill="#394DF7"/>
</svg>
